Coordinates
version=1
nRows=42
nColumns=38
inDegrees=no

Units are S.I. units (second, meters, Newtons, ...)
If the header above contains a line with 'inDegrees', this indicates whether rotational values are in degrees (yes) or radians (no).

endheader
time	pelvis_tilt	pelvis_list	pelvis_rotation	pelvis_tx	pelvis_ty	pelvis_tz	hip_flexion_r	hip_adduction_r	hip_rotation_r	knee_angle_r	ankle_angle_r	subtalar_angle_r	mtp_angle_r	hip_flexion_l	hip_adduction_l	hip_rotation_l	knee_angle_l	ankle_angle_l	subtalar_angle_l	mtp_angle_l	lumbar_extension	lumbar_bending	lumbar_rotation	arm_flex_r	arm_add_r	arm_rot_r	elbow_flex_r	pro_sup_r	wrist_flex_r	wrist_dev_r	arm_flex_l	arm_add_l	arm_rot_l	elbow_flex_l	pro_sup_l	wrist_flex_l	wrist_dev_l
20	-2.94453	1.29168	1.44878	0.850009	0.541405	1.01399	0.563528	-0.0965841	-0.0272623	0.924006	0.0141097	0	0	0.208343	0.0291556	-0.169472	0.0716541	-0.0938016	0	0	0.0539746	0.143722	0.144482	0.849818	-0.052365	0.273002	0.412519	1.5708	0	0	0.683781	0.271437	1.5708	0.186503	1.25929	0	0
20.01	-2.93681	1.28643	1.43956	0.850118	0.536007	1.01351	0.582714	-0.0861234	-0.00962639	0.914752	0.022974	0	0	0.209361	0.0261587	-0.16888	0.0754455	-0.0897867	0	0	0.0620349	0.146467	0.143864	0.843913	-0.056578	0.257252	0.416652	1.5708	0	0	0.685703	0.273341	1.5708	0.181198	1.26096	0	0
20.02	-2.92469	1.281	1.42753	0.850406	0.530009	1.01327	0.599885	-0.0763317	-0.00012981	0.896484	0.0264837	0	0	0.20925	0.0219819	-0.16864	0.0777369	-0.0869074	0	0	0.070186	0.150742	0.140768	0.836085	-0.0606095	0.241714	0.423135	1.5708	0	0	0.686324	0.273651	1.5708	0.177916	1.25943	0	0
20.03	-2.91014	1.27409	1.41505	0.850778	0.52385	1.013	0.616914	-0.0667858	0.00474778	0.874263	0.0277449	0	0	0.211065	0.0167962	-0.167944	0.0814814	-0.0835752	0	0	0.080251	0.155743	0.135199	0.826948	-0.0644289	0.22645	0.43072	1.5708	0	0	0.685843	0.272089	1.5708	0.177217	1.25512	0	0
20.04	-2.89895	1.26883	1.40332	0.850906	0.517327	1.01285	0.631541	-0.0570549	0.0107079	0.850788	0.0247426	0	0	0.211969	0.011617	-0.176234	0.0883705	-0.0793523	0	0	0.0887096	0.159526	0.131931	0.817173	-0.0677987	0.211179	0.438546	1.5708	0	0	0.68473	0.269238	1.5708	0.177693	1.25227	0	0
20.05	-2.8862	1.26676	1.39063	0.851012	0.51077	1.013	0.641448	-0.0480861	0.014034	0.824998	0.021846	0	0	0.208501	0.00671568	-0.18319	0.0931052	-0.0759922	0	0	0.0929214	0.162936	0.128377	0.807894	-0.0714279	0.19646	0.447517	1.5708	0	0	0.684353	0.265675	1.5708	0.178444	1.24985	0	0
20.06	-2.87167	1.26662	1.37763	0.851213	0.504174	1.01335	0.647884	-0.0402805	0.0137667	0.797172	0.0173712	0	0	0.202195	0.00222971	-0.187216	0.0960891	-0.0732678	0	0	0.0946524	0.166203	0.123833	0.798389	-0.0757708	0.181931	0.458472	1.5708	0	0	0.684317	0.261561	1.5708	0.179762	1.24839	0	0
20.07	-2.85523	1.26739	1.36374	0.85146	0.497414	1.0138	0.65176	-0.033079	0.0102256	0.766992	0.0106452	0	0	0.195384	-0.00250716	-0.190619	0.100822	-0.070122	0	0	0.095367	0.169552	0.118629	0.787672	-0.0803067	0.165743	0.471809	1.5708	0	0	0.684043	0.25673	1.5708	0.181997	1.24702	0	0
20.08	-2.83761	1.26838	1.34953	0.851737	0.490476	1.01426	0.654147	-0.0265864	0.00377065	0.734687	0.00360005	0	0	0.18791	-0.00752081	-0.193731	0.105296	-0.0677141	0	0	0.0960935	0.172923	0.112567	0.776842	-0.0847717	0.151749	0.484507	1.5708	0	0	0.682968	0.251419	1.5708	0.184451	1.24668	0	0
20.09	-2.82223	1.26873	1.33857	0.852051	0.48353	1.01462	0.656404	-0.0215224	-0.00486663	0.700939	-0.00354053	0	0	0.181085	-0.0121901	-0.197871	0.109152	-0.0661345	0	0	0.097931	0.175208	0.105512	0.767004	-0.0889701	0.141031	0.494406	1.5708	0	0	0.680917	0.24592	1.5708	0.186783	1.24666	0	0
20.1	-2.80567	1.26844	1.32827	0.852509	0.476608	1.01484	0.657855	-0.0173703	-0.0170529	0.665164	-0.0141293	0	0	0.17412	-0.017319	-0.201927	0.110689	-0.0647237	0	0	0.100589	0.177713	0.0970435	0.755548	-0.0932621	0.12702	0.507138	1.5708	0	0	0.679162	0.239304	1.5708	0.190385	1.24054	0	0
20.11	-2.78858	1.26951	1.31798	0.852902	0.46959	1.01523	0.656254	-0.0136178	-0.0314969	0.626758	-0.0259948	0	0	0.16786	-0.0231707	-0.208191	0.117642	-0.0630317	0	0	0.10129	0.179658	0.0888061	0.742823	-0.0978756	0.110334	0.523045	1.5708	0	0	0.677942	0.231642	1.5708	0.194963	1.23107	0	0
20.12	-2.77022	1.27178	1.30594	0.853237	0.462359	1.01569	0.65209	-0.00977385	-0.0476618	0.586056	-0.0389338	0	0	0.160475	-0.0292107	-0.212857	0.125978	-0.0615401	0	0	0.100519	0.181567	0.0818817	0.728518	-0.103146	0.092858	0.541309	1.5708	0	0	0.676563	0.223877	1.5708	0.199499	1.22243	0	0
20.13	-2.75327	1.27452	1.29522	0.853536	0.45493	1.01615	0.646371	-0.00618167	-0.0639491	0.543423	-0.0533829	0	0	0.151163	-0.0343547	-0.214122	0.13109	-0.0609569	0	0	0.0995212	0.1826	0.0755253	0.712808	-0.108579	0.0751574	0.560905	1.5708	0	0	0.673563	0.217579	1.5708	0.202027	1.22324	0	0
20.14	-2.73888	1.27736	1.28889	0.853999	0.447435	1.01657	0.639722	-0.00429906	-0.0817089	0.49972	-0.0691979	0	0	0.14069	-0.0381046	-0.212824	0.132379	-0.0617399	0	0	0.0990117	0.182308	0.0677121	0.696013	-0.113732	0.0565529	0.581371	1.5708	0	0	0.67006	0.211052	1.5708	0.204887	1.22718	0	0
20.15	-2.72462	1.28074	1.28459	0.854609	0.439947	1.017	0.631592	-0.00367922	-0.102683	0.454768	-0.0865094	0	0	0.130244	-0.041399	-0.209102	0.13453	-0.0623605	0	0	0.0979935	0.181577	0.0577752	0.679301	-0.118373	0.0386939	0.602037	1.5708	0	0	0.666939	0.203425	1.5708	0.208386	1.22813	0	0
20.16	-2.71767	1.28225	1.28608	0.854896	0.43226	1.01724	0.625637	-0.0030087	-0.121896	0.409653	-0.0963704	0	0	0.122343	-0.0437403	-0.207044	0.137695	-0.062948	0	0	0.103025	0.176571	0.0441451	0.676093	-0.115869	0.0265546	0.596651	1.5708	0	0	0.660564	0.193241	1.5708	0.208208	1.22817	0	0
20.17	-2.70076	1.28739	1.27548	0.855221	0.424522	1.01748	0.61479	0.000808212	-0.139888	0.365294	-0.113323	0	0	0.110002	-0.0485372	-0.210437	0.142748	-0.0615514	0	0	0.095026	0.178633	0.04723	0.636593	-0.131214	0.000553823	0.657693	1.5708	0	0	0.660153	0.190194	1.5708	0.21294	1.23061	0	0
20.18	-2.69299	1.29101	1.27243	0.855217	0.416539	1.0175	0.606259	0.00419204	-0.153983	0.321438	-0.130329	0	0	0.0994499	-0.0516347	-0.214962	0.147449	-0.0593971	0	0	0.0930864	0.176122	0.0455224	0.613916	-0.138427	-0.0159536	0.686844	1.5708	0	0	0.656505	0.182717	1.5708	0.216521	1.22347	0	0
20.19	-2.68171	1.29113	1.26647	0.855375	0.408093	1.01693	0.600072	0.00939678	-0.168091	0.277733	-0.147844	0	0	0.112826	-0.0724483	-0.281124	0.20947	-0.0476183	0	0	0.0998387	0.174076	0.0368932	0.603441	-0.1382	-0.030391	0.692261	1.5708	0	0	0.648529	0.172453	1.5708	0.218825	1.21584	0	0
20.2	-2.67502	1.29265	1.26896	0.855571	0.40019	1.01675	0.592446	0.0114262	-0.183188	0.234425	-0.169338	0	0	0.0834455	-0.0594265	-0.212094	0.154579	-0.0624957	0	0	0.0965144	0.173694	0.0378262	0.564427	-0.152989	-0.0488232	0.748552	1.5708	0	0	0.646988	0.166782	1.5708	0.226298	1.21604	0	0
20.21	-2.66747	1.29346	1.26772	0.855665	0.391845	1.01624	0.585121	0.0157316	-0.19314	0.192275	-0.186076	0	0	0.0752097	-0.0632184	-0.212776	0.157887	-0.0625786	0	0	0.0978957	0.172507	0.0352861	0.538508	-0.160206	-0.0662723	0.781677	1.5708	0	0	0.641978	0.158331	1.5708	0.232001	1.21412	0	0
20.22	-2.66346	1.29495	1.26851	0.855619	0.3834	1.01566	0.577351	0.0200357	-0.196543	0.151574	-0.201837	0	0	0.0664481	-0.0661584	-0.216441	0.161752	-0.0624831	0	0	0.0982859	0.170547	0.0345513	0.512028	-0.167558	-0.0827702	0.815608	1.5708	0	0	0.63705	0.149361	1.5708	0.23816	1.21273	0	0
20.23	-2.65842	1.29327	1.27078	0.855795	0.375026	1.01468	0.572272	0.0240493	-0.198121	0.112434	-0.215473	0	0	0.0625043	-0.0705209	-0.216721	0.168968	-0.0611694	0	0	0.102671	0.170146	0.0307789	0.484735	-0.17492	-0.0975174	0.849346	1.5708	0	0	0.631256	0.140104	1.5708	0.244066	1.2118	0	0
20.24	-2.65726	1.29336	1.27501	0.855824	0.366442	1.01373	0.565383	0.0274588	-0.19298	0.0758074	-0.223958	0	0	0.0570003	-0.073817	-0.221401	0.177396	-0.0598421	0	0	0.10501	0.168332	0.0288547	0.457278	-0.18157	-0.111862	0.883101	1.5708	0	0	0.625654	0.129652	1.5708	0.251467	1.21374	0	0
20.25	-2.6515	1.29419	1.27653	0.856106	0.357573	1.01278	0.556525	0.0307652	-0.190557	0.041882	-0.217519	0	0	0.050282	-0.0773154	-0.216768	0.186125	-0.0582572	0	0	0.106835	0.167685	0.024227	0.429669	-0.18791	-0.125001	0.916886	1.5708	0	0	0.618788	0.118989	1.5708	0.258473	1.2221	0	0
20.26	-2.64818	1.29597	1.2788	0.856204	0.348514	1.01185	0.546585	0.0339443	-0.181702	0.0104132	-0.220736	0	0	0.0410751	-0.0799474	-0.215334	0.191499	-0.0578567	0	0	0.107418	0.166217	0.0203275	0.40265	-0.193386	-0.136429	0.949759	1.5708	0	0	0.61017	0.107503	1.55583	0.26483	1.23682	0	0
20.27	-2.6475	1.29889	1.28243	0.856216	0.339202	1.01094	0.537937	0.0362376	-0.182316	0	-0.221948	0	0	0.0298502	-0.082069	-0.22039	0.195287	-0.0591829	0	0	0.10604	0.164246	0.0167853	0.375093	-0.196704	-0.149809	0.984684	1.5708	0	0	0.593554	0.094003	1.47011	0.27382	1.32155	0	0
20.28	-2.64582	1.30006	1.28598	0.85631	0.329661	1.00985	0.532071	0.0385738	-0.190545	0	-0.222423	0	0	0.0179301	-0.0860542	-0.22226	0.193028	-0.0633761	0	0	0.107442	0.162862	0.0118657	0.346725	-0.2	-0.161673	1.01815	1.5708	0	0	0.582162	0.0813281	1.4479	0.278713	1.33785	0	0
20.29	-2.62657	1.30111	1.2715	0.855778	0.319795	1.00857	0.524146	0.0466834	-0.196301	0	-0.224025	0	0	-0.00878013	-0.108288	-0.223352	0.144189	-0.0713298	0	0	0.107706	0.165885	0.00703273	0.318688	-0.202361	-0.172801	1.05087	1.5708	0	0	0.570573	0.0674944	1.42743	0.283483	1.34983	0	0
20.3	-2.62562	1.30354	1.27763	0.856163	0.310188	1.00757	0.51678	0.0469409	-0.199621	0	-0.225939	0	0	-0.0176169	-0.111422	-0.227689	0.150481	-0.0723365	0	0	0.107355	0.164207	-0.00175808	0.292715	-0.205056	-0.180438	1.0814	1.5708	0	0	0.559024	0.0546998	1.41152	0.283409	1.3554	0	0
20.31	-2.62541	1.3063	1.28362	0.85646	0.300272	1.00656	0.509129	0.047285	-0.199305	0	-0.227004	0	0	-0.0267481	-0.114409	-0.230758	0.158105	-0.0733739	0	0	0.10704	0.162388	-0.0109846	0.267556	-0.206365	-0.187499	1.1101	1.5708	0	0	0.546318	0.0419396	1.39613	0.280327	1.35776	0	0
20.32	-2.6269	1.30908	1.29095	0.85677	0.29011	1.00553	0.501724	0.0472058	-0.196786	0	-0.226508	0	0	-0.0356561	-0.117002	-0.233649	0.166583	-0.0735386	0	0	0.107262	0.160518	-0.0213189	0.243045	-0.208845	-0.190434	1.1374	1.5708	0	0	0.532444	0.0295381	1.3807	0.273832	1.35596	0	0
20.33	-2.63089	1.30981	1.30121	0.857094	0.279803	1.00432	0.496771	0.0467331	-0.193464	0	-0.223364	0	0	-0.0419059	-0.119749	-0.235392	0.175678	-0.0711358	0	0	0.110825	0.158784	-0.0343634	0.219216	-0.214031	-0.185997	1.16227	1.5708	0	0	0.516738	0.0164262	1.3632	0.265488	1.34868	0	0
20.34	-2.63215	1.31292	1.30758	0.857287	0.269349	1.00344	0.489139	0.0471521	-0.189242	0	-0.227656	0	0	-0.0513121	-0.122786	-0.237719	0.183254	-0.0761947	0	0	0.110563	0.157093	-0.0450634	0.194879	-0.21434	-0.190876	1.18819	1.5708	0	0	0.503882	0.00597063	1.36287	0.250631	1.34366	0	0
20.35	-2.62822	1.31616	1.30798	0.857416	0.258681	1.0028	0.48091	0.0494029	-0.184869	0	-0.233	0	0	-0.0585762	-0.127672	-0.237135	0.197429	-0.0800423	0	0	0.109358	0.1575	-0.0559897	0.170241	-0.215949	-0.192706	1.21538	1.5708	0	0	0.489408	-0.00326757	1.35863	0.232676	1.3354	0	0
20.36	-2.6129	1.32013	1.29834	0.857617	0.248359	1.00257	0.472065	0.0531042	-0.181223	0	-0.241652	0	0	-0.0635459	-0.13566	-0.232393	0.219911	-0.0834424	0	0	0.104688	0.161081	-0.0687183	0.147563	-0.219016	-0.192601	1.24274	1.5708	0	0	0.475815	-0.0109797	1.35271	0.211542	1.32472	0	0
20.37	-2.59076	1.32215	1.28065	0.857741	0.238295	1.00249	0.467105	0.0583669	-0.181279	0.00928457	-0.252201	0	0	-0.0656204	-0.146246	-0.228901	0.245977	-0.0876271	0	0	0.0998998	0.16804	-0.0808507	0.125908	-0.223439	-0.191374	1.27068	1.5708	0	0	0.46223	-0.0169399	1.3451	0.187563	1.31106	0	0
20.38	-2.56799	1.32235	1.25867	0.857542	0.228141	1.00259	0.466157	0.0648587	-0.185363	0.0298252	-0.259564	0	0	-0.0660404	-0.157975	-0.231732	0.27281	-0.0922455	0	0	0.0965718	0.175824	-0.0904719	0.105949	-0.225173	-0.192467	1.29472	1.5708	0	0	0.447542	-0.023365	1.33805	0.164122	1.29717	0	0
20.39	-2.53528	1.32582	1.22163	0.857021	0.217498	1.00326	0.461649	0.074069	-0.194887	0.0545856	-0.263701	0	0	-0.0676246	-0.174231	-0.251555	0.311764	-0.0989055	0	0	0.0877447	0.186391	-0.0945284	0.0855293	-0.233531	-0.186968	1.3201	1.5708	0	0	0.432687	-0.0285314	1.33462	0.139782	1.27912	0	0
20.4	-2.50191	1.32592	1.18347	0.856345	0.206961	1.00366	0.46008	0.0841895	-0.201136	0.0796759	-0.261863	0	0	-0.0622112	-0.196717	-0.283787	0.361591	-0.105815	0	0	0.0826026	0.197706	-0.0978533	0.0644362	-0.240389	-0.183892	1.34435	1.5708	0	0	0.417031	-0.0339288	1.33467	0.116718	1.26012	0	0
20.41	-2.46935	1.32961	1.14347	0.855254	0.195963	1.00481	0.453426	0.0938047	-0.204638	0.103343	-0.282203	0	0	-0.0667261	-0.210542	-0.291796	0.396325	-0.117992	0	0	0.0732151	0.205838	-0.0977087	0.0436796	-0.242171	-0.185302	1.36537	1.5708	0	0	0.401135	-0.0401193	1.33875	0.0937434	1.23762	0	0
